<?xml version="1.0" encoding="UTF-8"?>
<svg viewBox="0 0 304.015 304.014" xmlns="http://www.w3.org/2000/svg">
 <g transform="matrix(1.3533 0 0 1.3533 -53.208 -52.193)">
  <path d="m56.308 219.03v-104.65l14.109 0.086-0.027-6.16c4.148-2.109 8.957-3.91 14.144-5.359l-0.015-14.285c8.234-2.375 18.652-3.809 29.992-3.809 15.16 0 28.789 2.719 37.621 6.676 8.832-3.957 22.215-6.551 37.371-6.551 11.344 0 21.758 1.434 29.988 3.809l-0.011 14.285c5.187 1.449 9.996 3.25 14.144 5.359l-0.027 6.16 14.109-0.086v104.65l-191.4-0.125zm157.51-125.88c-6.711-1.293-15.011-2.383-24.187-2.383-14.277 0-26.797 2.684-34.762 5.668l-0.086 93.156c8.758-3.406 21.117-5.621 34.719-5.621 8.867 0 17.176 0.871 24.313 2.379l3e-3 -93.199zm-99.242 110.53c-17.875 0-33.808 3.809-44.199 9.723l0.043-93.145-8.461 0.086v93.067l180.1 0.125v-93.317l-8.461-0.086 0.043 93.395c-10.391-5.914-26.325-9.723-44.203-9.723-14.356 0-27.446 2.25-37.43 6.274-9.988-4.024-23.078-6.399-37.434-6.399zm-24.375-17.449c7.141-1.512 15.446-2.383 24.313-2.383 13.605 0 25.961 2.219 34.722 5.621l-0.089-93.406c-7.711-3.109-20.36-5.543-34.633-5.543-9.043 0-17.418 1.18-24.313 2.508v93.203zm61.746 9.551c-7.199-3.668-21.285-6.266-37.433-6.266-11.739 0-22.324 1.328-30.02 3.457l0.071-84.289c-3.176 0.895-5.985 2.012-8.708 3.164l0.204 92.93c10.601-4.227 23.98-6.77 38.519-6.77 14.051 0 27 2.231 37.43 6.207 10.43-3.976 23.379-6.082 37.43-6.082 14.539 0 27.917 2.418 38.519 6.645l0.199-92.805c-2.718-1.156-5.527-2.269-8.703-3.164l-0.055 84.914c-7.695-2.129-18.156-4.082-29.894-4.082-16.149 0-30.359 2.598-37.559 6.266" fill-rule="evenodd"/>
  <path d="m29.62 265.39h-27" fill="none" stroke="#000" stroke-width=".5"/>
  <path d="m38.62 274.39v27" fill="none" stroke="#000" stroke-width=".5"/>
  <path d="m29.62 38.62h-27" fill="none" stroke="#000" stroke-width=".5"/>
  <path d="m38.62 29.62v-27" fill="none" stroke="#000" stroke-width=".5"/>
  <path d="m274.39 38.62h27" fill="none" stroke="#000" stroke-width=".5"/>
  <path d="m265.39 29.62v-27" fill="none" stroke="#000" stroke-width=".5"/>
  <path d="m274.39 265.39h27" fill="none" stroke="#000" stroke-width=".5"/>
  <path d="m265.39 274.39v27" fill="none" stroke="#000" stroke-width=".5"/>
 </g>
</svg>
